<svg width="30" height="22" viewBox="0 0 30 22" fill="none" xmlns="http://www.w3.org/2000/svg" xmlns:xlink="http://www.w3.org/1999/xlink">
<path d="M28.636,10.744C29.047,10.025 28.797,9.109 28.078,8.698C27.358,8.287 26.442,8.537 26.031,9.256L28.636,10.744ZM0.667,10L-0.636,9.256C-0.899,9.717 -0.899,10.283 -0.636,10.744L0.667,10ZM26.031,10.744C26.442,11.464 27.358,11.713 28.078,11.302C28.797,10.891 29.047,9.975 28.636,9.256L26.031,10.744ZM26.031,9.256C22.638,15.194 18.613,17.833 14,17.833L14,20.833C20.053,20.833 24.917,17.252 28.636,10.744L26.031,9.256ZM14,17.833C9.387,17.833 5.362,15.194 1.969,9.256L-0.636,10.744C3.083,17.252 7.947,20.833 14,20.833L14,17.833ZM1.969,10.744C5.362,4.806 9.387,2.167 14,2.167L14,-0.833C7.947,-0.833 3.083,2.749 -0.636,9.256L1.969,10.744ZM14,2.167C18.613,2.167 22.638,4.806 26.031,10.744L28.636,9.256C24.917,2.749 20.053,-0.833 14,-0.833L14,2.167Z" fill="#E1DEF5" fill-opacity="0.9"/>
</svg>
