<svg width="18" height="14" viewBox="0 0 18 14" fill="none" xmlns="http://www.w3.org/2000/svg" xmlns:xlink="http://www.w3.org/1999/xlink">
<path d="M2.061,4.939C1.475,4.354 0.525,4.354 -0.061,4.939C-0.646,5.525 -0.646,6.475 -0.061,7.061L2.061,4.939ZM6,11L4.939,12.061C5.525,12.646 6.475,12.646 7.061,12.061L6,11ZM17.061,2.061C17.646,1.475 17.646,0.525 17.061,-0.061C16.475,-0.646 15.525,-0.646 14.939,-0.061L17.061,2.061ZM-0.061,7.061L4.939,12.061L7.061,9.939L2.061,4.939L-0.061,7.061ZM7.061,12.061L17.061,2.061L14.939,-0.061L4.939,9.939L7.061,12.061Z" fill="#FFFFFF"/>
</svg>
