<svg width="32" height="34" viewBox="0 0 32 34" fill="none" xmlns="http://www.w3.org/2000/svg" xmlns:xlink="http://www.w3.org/1999/xlink">
<path d="M4.858,-0.5C6.177,-0.688 8.025,-0.258 10.413,1.11L10.867,1.378L11.133,1.545L11.795,1.407C14.318,0.919 16.907,0.874 19.445,1.273L20.205,1.407L20.865,1.545L21.133,1.378C23.442,-0.022 25.278,-0.572 26.67,-0.535L26.943,-0.522L27.188,-0.493L27.315,-0.47L27.398,-0.452L27.638,-0.373C28.031,-0.211 28.347,0.096 28.522,0.483C29.204,2.003 29.433,3.687 29.183,5.333L29.105,5.778L29.028,6.105L29.233,6.377C30.19,7.702 30.783,9.257 30.95,10.888L30.988,11.38L31,11.833C31,18.258 28.235,21.638 23.26,22.967L22.852,23.068L22.632,23.117L22.655,23.385L22.668,23.647L22.675,24.255L22.672,24.61L22.667,31C22.667,31.408 22.517,31.802 22.245,32.107C21.974,32.412 21.6,32.607 21.195,32.655L21,32.667L11,32.667C10.592,32.667 10.198,32.517 9.893,32.245C9.588,31.974 9.393,31.6 9.345,31.195L9.333,31L9.333,29.777C6.303,30.21 4.283,29.07 2.483,26.647L1.592,25.37C1.125,24.71 0.833,24.405 0.61,24.297L0.53,24.265C0.117,24.131 -0.227,23.841 -0.429,23.457C-0.632,23.074 -0.676,22.626 -0.554,22.21C-0.431,21.793 -0.152,21.441 0.226,21.228C0.604,21.015 1.05,20.958 1.47,21.068C2.54,21.382 3.26,22.015 4.087,23.133L4.983,24.415C6.25,26.213 7.25,26.847 9.332,26.4L9.333,25.27L9.303,24.99C9.254,24.534 9.242,24.075 9.268,23.617L9.297,23.308L9.328,23.108L9.148,23.068C4.188,21.885 1.31,18.78 1.023,12.837L1.007,12.32L1,11.833C1.002,10.028 1.528,8.261 2.513,6.748L2.767,6.378L2.97,6.107L2.895,5.78C2.595,4.316 2.678,2.799 3.137,1.377L3.303,0.907L3.48,0.485C3.654,0.097 3.969,-0.209 4.362,-0.372L4.602,-0.45L4.858,-0.5Z" fill="#E1DEF5" fill-opacity="0.9"/>
</svg>
