<svg width="34" height="34" viewBox="0 0 34 34" fill="none" xmlns="http://www.w3.org/2000/svg" xmlns:xlink="http://www.w3.org/1999/xlink">
<path d="M16,-0.667C19.817,-0.672 23.519,0.638 26.483,3.043C26.671,3.195 26.823,3.385 26.929,3.601C27.036,3.817 27.094,4.054 27.101,4.295C27.107,4.535 27.061,4.775 26.966,4.996C26.871,5.217 26.729,5.415 26.55,5.577L24.033,7.847C23.748,8.104 23.381,8.255 22.997,8.273C22.613,8.291 22.234,8.176 21.925,7.947C20.23,6.701 18.186,6.022 16.083,6.005C13.98,5.988 11.925,6.634 10.211,7.852C8.497,9.07 7.21,10.798 6.534,12.789C5.857,14.781 5.826,16.935 6.445,18.945C7.063,20.955 8.3,22.719 9.978,23.986C11.657,25.253 13.692,25.958 15.795,26.002C17.897,26.046 19.96,25.426 21.69,24.23C23.42,23.034 24.729,21.323 25.43,19.34L25.432,19.333L19.332,19.333C18.924,19.333 18.53,19.183 18.225,18.912C17.921,18.64 17.726,18.267 17.678,17.862L17.667,17.667L17.667,14.333C17.667,13.891 17.842,13.467 18.155,13.155C18.467,12.842 18.891,12.667 19.333,12.667L30.908,12.667C31.319,12.667 31.715,12.818 32.02,13.092C32.326,13.365 32.52,13.742 32.565,14.15C32.632,14.762 32.667,15.378 32.667,16C32.667,25.205 25.205,32.667 16,32.667C6.795,32.667 -0.667,25.205 -0.667,16C-0.667,6.795 6.795,-0.667 16,-0.667Z" fill="#FF4C51"/>
</svg>
