<svg width="22" height="34" viewBox="0 0 22 34" fill="none" xmlns="http://www.w3.org/2000/svg" xmlns:xlink="http://www.w3.org/1999/xlink">
<path d="M20,-0.667C20.408,-0.667 20.802,-0.517 21.107,-0.246C21.412,0.026 21.607,0.399 21.655,0.805L21.667,1L21.667,7.667C21.667,8.075 21.517,8.469 21.245,8.774C20.974,9.079 20.6,9.274 20.195,9.322L20,9.333L15,9.333L15,11L20,11C20.237,11 20.472,11.051 20.688,11.149C20.904,11.247 21.097,11.39 21.253,11.568C21.409,11.747 21.526,11.956 21.594,12.184C21.663,12.411 21.683,12.65 21.652,12.885L21.618,13.072L19.952,19.738C19.869,20.067 19.688,20.363 19.432,20.587C19.177,20.81 18.859,20.95 18.522,20.988L18.333,21L15,21L15,31C15,31.408 14.85,31.802 14.579,32.107C14.308,32.412 13.934,32.607 13.528,32.655L13.333,32.667L6.667,32.667C6.258,32.666 5.864,32.517 5.559,32.245C5.254,31.974 5.059,31.6 5.012,31.195L5,31L5,21L1.667,21C1.258,21 0.864,20.85 0.559,20.579C0.254,20.307 0.059,19.934 0.012,19.528L0,19.333L0,12.667C0,12.258 0.15,11.864 0.421,11.559C0.692,11.254 1.066,11.059 1.472,11.012L1.667,11L5,11L5,9.333C5,6.746 6.003,4.259 7.797,2.396C9.592,0.532 12.04,-0.563 14.625,-0.66L15,-0.667L20,-0.667Z" fill="#4267B2"/>
</svg>
