<svg width="38" height="32" viewBox="0 0 38 32" fill="none" xmlns="http://www.w3.org/2000/svg" xmlns:xlink="http://www.w3.org/1999/xlink">
<path d="M21.43,1.683C18.418,2.962 16.438,5.772 16.337,8.983L16.333,9.287L15.928,9.248C11.942,8.8 8.432,6.728 6.022,3.363C5.858,3.135 5.64,2.952 5.388,2.831C5.135,2.709 4.855,2.654 4.575,2.669C4.295,2.684 4.024,2.77 3.786,2.918C3.548,3.066 3.351,3.272 3.213,3.517L3.052,3.827L2.97,3.992C1.772,6.467 0.987,9.475 1.275,12.663L1.325,13.118C1.797,16.89 3.825,20.143 7.623,22.583L7.912,22.762L7.777,22.833C5.585,23.938 3.58,24.42 1.398,24.333C-0.362,24.267 -1.012,26.62 0.535,27.463C6.532,30.732 12.97,31.74 18.522,30.13C25.288,28.163 30.442,23.092 32.413,16.075L32.625,15.25C33.022,13.595 33.245,11.907 33.293,10.21L33.298,9.657L33.953,8.358L34.687,6.922L35.043,6.198L35.24,5.787C35.682,4.845 36,4.065 36.197,3.403L36.22,3.31L36.233,3.28C36.6,2.292 35.957,1.017 34.665,1.017L34.462,1.028C34.33,1.045 34.201,1.076 34.077,1.123L33.933,1.187C33.458,1.418 32.968,1.618 32.467,1.787L31.873,1.978L31.422,2.112L30.135,2.468C27.908,0.605 24.895,0.378 21.782,1.545L21.43,1.683Z" fill="#1DA1F2"/>
</svg>
