<svg width="70" height="50" viewBox="0 0 70 50" fill="none" xmlns="http://www.w3.org/2000/svg" xmlns:xlink="http://www.w3.org/1999/xlink">
<path d="M0.004,1L0.004,15.954C0.004,15.954 -0.291,20.663 4.322,24.648L29.872,48.992L43.158,48.821L41.027,22.562L35.989,16.65L20.156,1L0.004,1Z" clip-rule="evenodd" fill-rule="evenodd" fill="#7367F0"/>
<g opacity="0.06">
<path d="M16.796,36.861L27.316,8.063L36.118,16.831L16.796,36.861Z" clip-rule="evenodd" fill-rule="evenodd" fill="#161616"/>
</g>
<g opacity="0.06">
<path d="M17.624,35.729L30.419,11.124L36.185,16.894L17.624,35.729Z" clip-rule="evenodd" fill-rule="evenodd" fill="#161616"/>
</g>
<path d="M16.959,36.687L51.614,1L69.818,1L69.818,16.019C69.818,16.019 69.439,21.026 66.893,23.703L43.162,49L29.877,49L16.959,36.687Z" clip-rule="evenodd" fill-rule="evenodd" fill="#7367F0"/>
</svg>
